<svg xmlns="http://www.w3.org/2000/svg" width="2039" height="1411" viewBox="0 0 2039 1411">
  <defs>
    <style>
      .cls-1 {
        fill: #fff;
        fill-rule: evenodd;
      }
    </style>
  </defs>
  <path id="Color_Fill_1" data-name="Color Fill 1" class="cls-1" d="M31,342H2069q0.495,704.93,1,1410h-2q-1018.395.495-2037,1V342Zm1885,79L184,422l1,2,17,17c13.95,14.062,28.053,27.946,42,42,44.673,45.018,90.154,89.16,135,134q218.515,218.484,437,437,82.493,82.485,165,165c16.6,16.6,33.87,32.98,50,50,5.84,6.16,11.83,15.48,20,19,22.63-31.51,58.28-54.17,84-83,77.47-86.86,168.87-160.9,246-248q44.49-43.5,89-87c26.08-33.266,61.15-59.33,90-90,55.34-58.833,113.8-115.007,172-171,25.42-24.455,49.05-51.046,74-76q26.49-25.5,53-51c17.54-19.1,35.79-41.879,57-57v-4ZM109,463V1615h4q193.481-193.485,387-387c31.706-31.96,64.361-62.99,96-95,8.569-8.67,28.049-34.56,39-38,9.473,13.04,50.724,44.14,53,57-21.714,15.52-39.471,38.96-58,58-37.777,38.82-76.979,76.38-115,115L301,1537c-25.312,32.22-59.3,58.87-88,88-12.511,12.7-29.934,36.58-45,45,0.333,0.67.667,1.33,1,2q881.412,0.495,1763,1c0.33-.67.67-1.33,1-2l-42-42c-35.22-27.87-64.48-64.21-96-96-77.14-77.82-155.51-154.52-233-232l-106-106c-11.48-11.48-38.9-31.83-45-46,13.73-10,43.87-51.59,58-54,7.66,12.11,20.14,21.94,31,31q24.99,25.995,50,52c13.22,13.12,30.51,25.47,42,40,25.88,32.75,59.83,59.36,89,89q85.35,86.73,172,172c32.96,32.33,65.28,65.42,98,98,8.25,8.21,28.86,35.02,39,38,0.33-1.67.67-3.33,1-5V463h-4q-15.495,15.5-31,31c-23.39,19.075-44.55,44.6-66,66-65.74,65.607-130.81,131.838-197,197-89.57,88.176-179.43,176.848-267,267-26.97,27.76-54.64,54.64-82,82-14.29,14.29-27,30.46-43,43q-24.495,25.5-49,51c-14.96,11.78-25.27,28.46-40,40-28.18,22.07-53.81,50.6-79,76-15.98,16.11-34.06,32.08-49,49-9.02,10.21-21.35,29.46-35,34L365,717c-17.511-22.335-42.277-38.1-60-60-11.043-13.647-26.321-23.386-37-37-26.114-33.292-61.151-61.127-91-91q-23.991-24.01-48-48C123.122,475.119,118.71,464.746,109,463Z" transform="translate(-31 -342)"/>
</svg>
