<svg xmlns="http://www.w3.org/2000/svg" width="1665.81" height="1663" viewBox="0 0 1665.81 1663">
  <defs>
    <style>
      .cls-1 {
        fill: #fff;
        fill-rule: evenodd;
      }
    </style>
  </defs>
  <path id="Color_Fill_2" data-name="Color Fill 2" class="cls-1" d="M517,216h54c14.705,7.87,33.911,15.98,46,27,23.756,21.655,36.9,56.689,56,83,48.4,66.665,93.472,136.856,137,208,22.564,36.879,66.39,67.289,55,136-13.612,82.117-78.146,135.649-105,206l30,42,70,83c76.8,82.42,155.52,164.28,241,238,30.56,26.36,87.31,86.91,125,100,12.35-13.84,35.23-20.7,52-30,41.76-23.17,82.22-52.39,129-70,13.65-5.14,53.01-11.09,71-4,35.84,14.13,63.28,38.89,94,58,55.81,34.72,108.52,72.87,163,108,48.92,31.54,111.41,58.93,139,112,3.54,6.81,17.77,52.53,9,69-64.55,121.16-156.1,225.47-270,297h-54c-58.41,0-97.97-12.65-141-27-186.44-62.17-320.18-166.9-459-275-105.646-82.27-200.619-178.25-292-275-136.187-144.2-258.821-294.61-358-474-23.046-41.685-46.768-89.692-62-138-9.926-31.48-12.5-71.531-27-100V485C271.919,397.9,351.435,330.748,428,268l46-33C484.468,229.1,510.968,226.132,517,216Zm10,86-30,17c-55.651,40.052-167.468,133.226-195,196-8.937,20.376,6.474,85.35,12,99,9.045,22.344,8.9,43.227,17,65a901.739,901.739,0,0,0,87,173c128.189,197.6,263.506,359.58,432,516,75.513,70.1,148.865,145.87,236,204l94,70c73.22,53.25,156.06,90.62,247,126,37.49,14.59,96.13,38.88,151,30,53.75-8.7,148.45-135.21,183-176,9.97-11.77,48.53-48.87,36-79-5.56-13.37-69.44-48.38-85-58q-123.99-82.995-248-166c-30.71-11.91-63.51,15.17-78,24q-82.995,45.99-166,92-25.995-16.5-52-33-46.995-37.5-94-75c-105.9-91.06-200.677-192.26-294-296-22.707-25.24-114.26-125.435-116-159,13.269-5.734,41.219-69.734,50-86,21.321-39.5,51.4-76.259,66-122,10.091-31.616-16.8-49.652-28-67-34.531-53.51-67.35-107.144-104-158-17.679-24.533-71.591-125.758-91-136Z" transform="translate(-220 -216)"/>
</svg>
